<svg xmlns="http://www.w3.org/2000/svg" width="256" height="256"><path fill="#1976D2" fill-opacity=".016" fill-rule="evenodd" d="M0 128.004v128.004l128.25-.254 128.25-.254.254-127.75L257.008 0H0zm.485.496c0 70.4.119 99.053.265 63.672s.146-92.98 0-128S.485 58.1.485 128.5"/><path fill="#1976D2" fill-opacity=".215" fill-rule="evenodd" d="M4.691 8.92C.704 13.333-.544 17.838.45 24.228c.366 2.35 1.077 48.323 1.581 102.162s1.066 98.04 1.249 98.223 1.995-.126 4.026-.687l3.694-1.02.051-10.203c.029-5.612.519-13.353 1.09-17.203s1.379-22.3 1.796-41c.46-20.651 1.204-35.353 1.897-37.446.91-2.755.854-3.881-.279-5.61-1.23-1.878-1.213-2.744.127-6.554 1.217-3.461 1.416-6.929.937-16.39-.334-6.6-.894-13.687-1.244-15.75-.52-3.061-.337-3.75.994-3.75 1.958 0 1.966-.313.511-18.186-.616-7.564-.812-16.624-.436-20.133.66-6.169.767-6.363 3.235-5.892 1.403.269 5.537-.064 9.186-.74 5.506-1.019 11.536-.91 35.445.641 21.404 1.389 29.053 1.578 29.752.736.638-.769 10.359-1.347 30.189-1.796 30.295-.686 49.843-1.189 86.999-2.238l21.75-.613v-2.39c0-1.314-.562-2.398-1.25-2.41-.687-.011-8-.458-16.25-.993s-43.35-1.66-78-2.501C69.161 10.827 30.454 8.678 11.385 5.482c-2.673-.448-3.624.041-6.694 3.438M108 34.505c0 .827 2.277 11.74 5.059 24.25 6.066 27.27 7.927 38.996 7.935 49.995.006 7.897-.09 8.25-2.25 8.25-5.778 0-29.563-3.373-52.726-7.477-14.015-2.483-28.303-4.804-31.75-5.157L28 103.724v22.138c0 12.176.113 22.138.25 22.138s11.05-2.032 24.25-4.515C83.096 137.731 96.399 136 110.043 136h10.94l-.59 12.25c-.394 8.162-1.219 13.996-2.471 17.482C114.69 174.726 106 216.877 106 223.561c0 1.209 3.601 1.439 22.567 1.439 21.023 0 22.532-.12 22.051-1.75-2.221-7.514-11.618-76.324-11.618-85.071v-3.323l5.75.654c3.162.36 19.025 3.299 35.25 6.532 25.515 5.085 49.578 8.713 50.653 7.638.183-.182.633-10.363 1.002-22.623l.67-22.291-6.412.687c-11.253 1.207-24.215 3.521-30.913 5.52-6.776 2.023-39.57 6.027-49.358 6.027H140v-6.869c0-8.425 2.024-20.335 6.477-38.113C150.75 54.962 153 43.015 153 37.39V33h-22.5c-19.364 0-22.5.21-22.5 1.505m141.244 3.735c-4.018 4.278-4.658 11.109-3.253 34.76 1.181 19.878 1.144 21.953-.489 27.5-1.776 6.034-1.986 11.844-3.523 97.5-.267 14.862-1.433 30.703-2.509 34.094-.577 1.82-1.982 1.906-30.978 1.906-21.08 0-30.583-.338-31.056-1.104-.735-1.188-8.235-4.838-10.017-4.874-.595-.012-1.72 1.173-2.5 2.633l-1.419 2.654-32.5-.892c-50.078-1.376-88.563-1.189-94.231.458-6.842 1.988-7.596 3.392-3.499 6.517 9.526 7.266 19.166 8.143 73.23 6.661 51.341-1.408 91.291-.201 117.108 3.537 3.209.464 4.241.246 4.718-.998.483-1.258 2.14-1.587 7.893-1.568 4.004.013 8.943.41 10.974.882l3.693.858.511-5.132c1.015-10.193 2.639-67.209 2.004-70.38-.379-1.896-.186-3.807.466-4.592 1.843-2.221 2.659-38.001 1.019-44.66-1.651-6.704-1.631-41.025.026-45.315 1.193-3.087 1.352-35.52.194-39.68-.919-3.305-3.196-3.602-5.862-.765M78.5 70.528c-11.252 6.042-11.98 6.616-11.685 9.208.174 1.52.961 3.761 1.75 4.979C70.44 87.609 70.38 88 68.059 88c-2.81 0-3.555 1.9-1.409 3.591C74.9 98.09 111 110.158 111 106.417c0-.321-.928-4.217-2.062-8.658-2.502-9.802-6.583-18.925-10.799-24.147C96.413 71.474 95 68.977 95 68.062c0-1.889-1.883-4.083-3.45-4.019-.578.023-6.45 2.942-13.05 6.485m89.713-5.278c-4.574 5.538-18.539 39.758-16.895 41.401.779.78 17.59-2.367 25.05-4.688 3.309-1.03 8.979-3.897 12.6-6.371l6.583-4.498-6.302-13.078-6.302-13.078-4.846.643c-3.134.416-5.087.25-5.532-.469-.914-1.48-3.077-1.411-4.356.138M95.5 147.599C89.126 149.12 61 162.57 61 164.096c0 .497.46.904 1.021.904.562 0 1.508 1.068 2.103 2.373.862 1.892.655 3.338-1.021 7.127-1.157 2.615-2.103 4.922-2.103 5.127s1.73.373 3.845.373c2.67 0 4.427.654 5.75 2.141 2.432 2.734 9.098 5.809 12.655 5.837 2.414.019 2.75.407 2.75 3.177 0 3.147.005 3.15 2.122 1.25C95.767 185.54 110 157.201 110 148.843c0-2.691-.227-2.839-4.25-2.76-2.338.046-6.95.728-10.25 1.516m55.515.512c.008.764.694 4.314 1.524 7.889 3.716 15.998 10.625 32.681 15.869 38.318 3.438 3.695 7.109 3.4 7.053-.568-.047-3.233 1.714-3.539 7.193-1.25 1.975.825 3.953 1.5 4.395 1.5.951 0 6.315-13.589 7.991-20.243.985-3.912 1.585-4.693 3.806-4.951 1.567-.182 2.773-1.021 2.971-2.069.26-1.369-2.02-2.863-10.212-6.688-17.467-8.156-28.536-12.232-34.749-12.796-4.589-.416-5.853-.23-5.841.858"/><path fill="#1976D2" fill-opacity=".447" fill-rule="evenodd" d="M4.615 9.045C.648 13.76-.502 19.331 1.012 26.5c.944 4.473 1.422 30.223 1.877 101.167.336 52.342.916 95.473 1.289 95.845.374.373 2.061.375 3.75.004l3.072-.675.024-13.67c.013-7.519.526-15.471 1.14-17.671.693-2.486 1.168-15.544 1.254-34.5.093-20.53.566-32.675 1.446-37.155 1.009-5.131 1.04-7.155.138-8.841-.908-1.698-.874-2.891.152-5.345 1.534-3.665 1.712-14.055.477-27.909-.795-8.922-.721-9.75.867-9.75 1.373 0 1.609-.574 1.13-2.75-.333-1.513-.905-11.389-1.271-21.949l-.666-19.198 5.905-.009c3.247-.005 7.254-.411 8.904-.901 1.913-.568 13.825-.18 32.87 1.073 22.242 1.463 30.05 1.672 30.577.82.663-1.073 92.245-4.01 126.803-4.066C232.943 21 233 20.989 233 18.645c0-2.28-.322-2.373-10.25-2.954-10.444-.611-50.3-1.863-118.015-3.707C68.6 11 36.628 9.128 19.526 6.995 8.128 5.573 7.46 5.665 4.615 9.045M108.609 36.14c.332 1.848 2.55 12.135 4.929 22.86 5.58 25.152 7.275 35.152 8.095 47.75l.668 10.25h-5.099c-7.374 0-25.898-2.522-47.702-6.495-21.829-3.977-37.224-6.495-39.75-6.501C28.137 104 28 105.689 28 125.5c0 20.741.07 21.5 1.975 21.5 1.086 0 10.423-1.601 20.75-3.558 28.075-5.32 42.323-7.334 57.175-8.085l13.399-.676-.726 13.368c-.536 9.861-1.343 15.215-3.076 20.409-3.86 11.572-12.06 54.646-10.668 56.038.278.277 10.104.504 21.838.504 18.966 0 21.333-.179 21.333-1.614 0-.888-1.099-8.2-2.443-16.25-2.979-17.848-6.118-40.209-7.528-53.636-.578-5.5-1.309-11.981-1.624-14.401l-.573-4.402 7.334.68c4.034.373 20.674 3.375 36.979 6.671 16.305 3.295 33.967 6.276 39.25 6.623l9.605.631v-43.59l-8.25.682c-8.777.726-27.018 4.144-29.663 5.559-1.497.8-29.38 4.152-46.337 5.57l-7.75.648v-3.862c0-8.196 2.266-21.6 6.984-41.309 4.951-20.68 7.795-37.555 6.54-38.809-.374-.374-10.544-.845-22.599-1.046l-21.919-.365zm141.69 1.363c-3.984 2.791-4.428 6.758-4.105 36.709.277 25.623.138 28.603-1.444 31.031-1.592 2.444-1.753 6.329-1.783 42.972-.031 38.46-1.085 72.532-2.519 81.419l-.666 4.134-29.805.733-29.804.733-3.494-2.665c-4.825-3.681-10.122-4.479-11.585-1.745-.761 1.422-2.554 2.272-5.826 2.763-2.599.39-24.083-.098-47.741-1.084-24.808-1.033-48.731-1.53-56.521-1.173C42.14 231.92 31 234.064 31 235.95c0 .48 1.371 2.026 3.047 3.436 7.379 6.209 23.848 8.062 59.119 6.653 47.857-1.912 93.081-1.064 122.975 2.306 9.294 1.047 11.14 1.021 12.132-.174.919-1.107 3.483-1.314 11.948-.966l10.779.445.03-4.075c.017-2.241.459-13.75.984-25.575s.988-27.787 1.031-35.471.523-14.509 1.068-15.165c.963-1.16.66-28.806-.684-62.364-.432-10.776-.142-17.838 1.129-27.5 2.217-16.857 1.361-41.5-1.442-41.5-.369 0-1.637.676-2.817 1.503M78.772 70.69 66.19 77.175l.887 3.095c.489 1.702 1.346 3.553 1.906 4.113 1.749 1.749 1.119 3.375-1.571 4.05-2.198.551-2.395.882-1.31 2.19 2.127 2.563 12.049 7.096 25.963 11.862 14.374 4.924 17.935 5.485 17.935 2.829 0-6.966-6.809-24.76-11.966-31.271C96.365 71.936 95 69.373 95 68.347s-.82-2.378-1.822-3.004c-1.512-.944-3.967-.033-14.406 5.347m84.194 5.378c-5.415 10.803-12.655 29.576-11.754 30.478.191.191 5.959-.749 12.818-2.089 13.083-2.555 21.896-6.109 27.67-11.159l3.199-2.798-6.057-12.5c-3.332-6.875-6.122-12.573-6.2-12.663s-2.167.209-4.642.665c-3.488.642-4.68.51-5.3-.587-1.832-3.243-3.906-.974-9.734 10.653M98.5 147.5c-8.625 1.926-12.894 3.617-26.061 10.322-10.628 5.411-11.513 6.068-9.575 7.105 2.537 1.358 2.843 6.212.636 10.073-2.319 4.056-1.867 5 2.393 5 2.484 0 4.095.526 4.451 1.455.724 1.886 7.124 5.087 11.906 5.955 3.13.568 3.75 1.086 3.75 3.135 0 1.35.438 2.455.974 2.455 1.654 0 10.71-13.718 15.46-23.418 4.471-9.129 8.3-21.182 7.108-22.373-1.154-1.155-5.027-1.053-11.042.291m53.846 4.75c1.374 11.617 10.632 35.727 15.936 41.5 1.136 1.238 3.113 2.25 4.392 2.25 1.913 0 2.326-.528 2.326-2.975 0-2.816.173-2.942 3.25-2.357 1.787.34 4.503 1.248 6.036 2.019 2.785 1.401 2.786 1.4 5.123-3.893 1.93-4.372 4.09-10.844 6.188-18.544.187-.687 1.479-1.25 2.872-1.25 1.965 0 2.526-.503 2.507-2.25-.021-1.915-1.997-3.134-13.25-8.179C173.384 152.141 158.56 147 154.362 147c-2.594 0-2.627.087-2.016 5.25"/><path fill="#1976D2" fill-opacity=".256" fill-rule="evenodd" d="M5.708 8.565c-3.622 3.621-5.07 8.877-4.276 15.517.356 2.98 1.023 48.974 1.483 102.209.459 53.236 1.026 96.983 1.26 97.217s1.626.103 3.094-.291l2.669-.717.446-14.079c.246-7.743.931-15.879 1.524-18.079.626-2.326 1.22-17.565 1.418-36.421.228-21.699.739-33.652 1.547-36.144.979-3.023.943-4.246-.192-6.5-1.168-2.319-1.182-3.272-.085-5.777 1.445-3.299 1.692-16.267.55-28.822-.564-6.202-.423-7.983.682-8.602 1.159-.648 1.24-3.289.481-15.678-.502-8.194-.738-17.936-.525-21.648l.387-6.75h4.838c2.661 0 7.01-.481 9.665-1.07 3.687-.817 11.55-.599 33.326.925 23.286 1.629 28.774 1.759 30 .708 1.147-.983 14.574-1.559 57-2.443 70.396-1.466 82-1.987 82-3.683 0-.82-1.92-1.503-5.25-1.868-9.688-1.062-51.857-2.569-100.25-3.585-26.4-.553-55.425-1.462-64.5-2.018-17.703-1.086-46.563-3.634-51.541-4.55-2.414-.445-3.601-.001-5.751 2.149M109 35.623c0 .892 2.221 11.58 4.936 23.75s5.639 26.91 6.5 32.755c1.94 13.182 2.094 25.876.314 25.862-5.806-.044-32.746-3.809-53.25-7.44-23.738-4.205-37.866-6.499-38.112-6.19-.061.077-.406 9.703-.767 21.39-.426 13.822-.308 21.25.337 21.25.545 0 9.215-1.557 19.267-3.461 32.363-6.128 42.973-7.622 58.501-8.236l15.227-.603-.477 6.65c-.262 3.658-.675 9.479-.918 12.936-.244 3.458-1.6 10.279-3.014 15.16-2.989 10.314-9.098 40.144-10.129 49.463l-.709 6.409 7.798-.659c4.289-.362 14.038-.659 21.666-.659h13.868l-.543-2.25c-2.818-11.669-12.562-86.016-11.422-87.156.951-.952 17.335 1.658 43.427 6.918 25.287 5.097 40.207 7.488 46.724 7.488H231v-43.233l-6.75.703c-10.669 1.111-23.186 3.37-30.25 5.459-6.225 1.841-41.886 6.117-50.75 6.086L139 118l.004-6.25c.006-8.835 2.265-21.707 7.53-42.908 2.506-10.088 4.828-22.054 5.16-26.592l.603-8.25h-21.648C111.345 34 109 34.176 109 35.623m140.164 3.896c-2.872 3.651-3.505 10.749-2.528 28.379 1.278 23.083.944 32.354-1.328 36.848-1.773 3.507-1.912 6.814-2.112 50.254-.219 47.318-1.342 74.536-3.222 78.048-1 1.87-2.317 1.952-31.354 1.952-28.846 0-30.396-.095-32.086-1.962-.977-1.08-3.379-2.492-5.339-3.139-3.324-1.097-3.704-.999-5.666 1.463L163.425 234l-15.963-.01c-8.779-.005-24.737-.477-35.462-1.05-41.098-2.193-72.703-1.31-79.288 2.214-4.09 2.189 3.744 6.814 15.838 9.349 7.073 1.483 12.36 1.575 47.95.832 58.704-1.225 94.95-.404 121.373 2.752 7.358.879 8.6.795 10.243-.692 1.572-1.422 3.265-1.6 10.627-1.117 4.816.316 9.461.849 10.321 1.184 1.387.54 1.707-3.559 2.838-36.359.702-20.333.973-37.92.604-39.084-.392-1.234-.116-2.783.661-3.721 1.043-1.256 1.278-6.637 1.08-24.702-.46-42.085-.392-62.894.267-81.496.693-19.538.252-25.1-1.987-25.1-.76 0-2.273 1.133-3.363 2.519m-85.92 36.731c-6.217 12.432-12.091 28.237-10.927 29.401 1.079 1.078 22.862-3.653 28.459-6.181 2.902-1.311 7.2-3.765 9.55-5.453l4.274-3.069-6.05-12.526-6.05-12.527-4.57.622c-3.49.474-4.878.25-5.873-.948-.716-.863-1.614-1.569-1.994-1.569-.381 0-3.45 5.513-6.819 12.25M78.75 71.06C72.287 74.336 67 77.592 67 78.297c0 .704.896 3.038 1.992 5.187 2.014 3.951 1.536 5.461-1.742 5.501-1.94.023-1.479 1.388 1 2.964 11.425 7.259 41.75 16.82 41.75 13.163 0-.489-1.129-4.785-2.509-9.547-2.841-9.803-7.257-19.148-10.382-21.97-1.16-1.048-2.109-2.87-2.109-4.05 0-2.306-1.744-4.577-3.45-4.493-.578.028-6.337 2.732-12.8 6.008M95 148.573c-3.025.793-11.714 4.463-19.308 8.155-11.348 5.517-13.531 6.916-12.25 7.853 2.01 1.47 2.027 7.61.032 11.469L61.949 179h3.228c2.177 0 4.22.933 6.275 2.866 3.204 3.013 8.244 5.134 12.197 5.134 1.977 0 2.358.517 2.394 3.25l.042 3.25 3.918-4.463c7.691-8.76 18.92-32.009 18.976-39.287.02-2.582-.238-2.746-4.229-2.684-2.338.036-6.725.714-9.75 1.507m57 .394c0 3.42 4.83 20.775 7.964 28.618 3.563 8.914 8.367 16.944 10.665 17.826 3.263 1.252 4.371.613 4.371-2.522 0-3.051.073-3.098 3.75-2.426 2.063.377 4.726 1.313 5.919 2.081 2.093 1.347 2.278 1.135 5.254-6.013 1.696-4.075 3.6-9.644 4.23-12.375.998-4.322 1.526-5.042 4.072-5.551 5.252-1.05 2.708-3.478-9.595-9.156-13.926-6.426-26.419-10.945-32.38-11.712-3.61-.464-4.25-.279-4.25 1.23"/></svg>